<svg xmlns="http://www.w3.org/2000/svg" width="244" height="124" viewBox="0 0 244 124" shape-rendering="crispEdges"><rect width="244" height="124" fill="#17211D"></rect><rect x="6" y="6" width="16" height="16" fill="#2E6344"></rect><rect x="66" y="6" width="16" height="16" fill="#4C84A2"></rect><rect x="146" y="6" width="16" height="16" fill="#99392F"></rect><rect x="206" y="6" width="16" height="16" fill="#4C84A2"></rect><rect x="26" y="26" width="16" height="16" fill="#B2665A"></rect><rect x="86" y="26" width="16" height="16" fill="#2E5D7C"></rect><rect x="166" y="26" width="16" height="16" fill="#B2665A"></rect><rect x="46" y="46" width="16" height="16" fill="#B2665A"></rect><rect x="106" y="46" width="16" height="16" fill="#4E8F6C"></rect><rect x="186" y="46" width="16" height="16" fill="#B2665A"></rect><rect x="226" y="46" width="16" height="16" fill="#B2665A"></rect><rect x="6" y="66" width="16" height="16" fill="#4C84A2"></rect><rect x="66" y="66" width="16" height="16" fill="#99392F"></rect><rect x="126" y="66" width="16" height="16" fill="#4C84A2"></rect><rect x="206" y="66" width="16" height="16" fill="#99392F"></rect><rect x="26" y="86" width="16" height="16" fill="#2E5D7C"></rect><rect x="86" y="86" width="16" height="16" fill="#B2665A"></rect><rect x="166" y="86" width="16" height="16" fill="#2E5D7C"></rect><rect x="46" y="106" width="16" height="16" fill="#4E8F6C"></rect><rect x="106" y="106" width="16" height="16" fill="#B2665A"></rect><rect x="186" y="106" width="16" height="16" fill="#4C84A2"></rect><rect x="226" y="106" width="16" height="16" fill="#4C84A2"></rect><rect x="4" y="4" width="1" height="120" fill="#26332D"></rect><rect x="24" y="4" width="1" height="120" fill="#26332D"></rect><rect x="44" y="4" width="1" height="120" fill="#26332D"></rect><rect x="64" y="4" width="1" height="120" fill="#26332D"></rect><rect x="84" y="4" width="1" height="120" fill="#26332D"></rect><rect x="104" y="4" width="1" height="120" fill="#26332D"></rect><rect x="124" y="4" width="1" height="120" fill="#26332D"></rect><rect x="144" y="4" width="1" height="120" fill="#26332D"></rect><rect x="164" y="4" width="1" height="120" fill="#26332D"></rect><rect x="184" y="4" width="1" height="120" fill="#26332D"></rect><rect x="204" y="4" width="1" height="120" fill="#26332D"></rect><rect x="224" y="4" width="1" height="120" fill="#26332D"></rect><rect x="244" y="4" width="1" height="120" fill="#26332D"></rect><rect x="4" y="4" width="240" height="1" fill="#26332D"></rect><rect x="4" y="24" width="240" height="1" fill="#26332D"></rect><rect x="4" y="44" width="240" height="1" fill="#26332D"></rect><rect x="4" y="64" width="240" height="1" fill="#26332D"></rect><rect x="4" y="84" width="240" height="1" fill="#26332D"></rect><rect x="4" y="104" width="240" height="1" fill="#26332D"></rect><rect x="4" y="124" width="240" height="1" fill="#26332D"></rect><rect x="0" y="0" width="244" height="4" fill="#5F6E68"></rect><rect x="0" y="0" width="4" height="124" fill="#5F6E68"></rect></svg>